<svg width="140" height="28" viewBox="0 0 140 28" fill="none" xmlns="http://www.w3.org/2000/svg">
<path d="M15.2174 8.61535C14.2186 7.57647 12.9531 6.87376 11.5795 6.59531C10.206 6.31687 8.78557 6.47509 7.4964 7.05014C6.20723 7.62519 5.10668 8.59148 4.33276 9.82782C3.55884 11.0642 3.146 12.5155 3.146 14C3.146 15.4844 3.55884 16.9358 4.33276 18.1721C5.10668 19.4085 6.20723 20.3747 7.4964 20.9498C8.78557 21.5248 10.206 21.6831 11.5795 21.4046C12.9531 21.1262 14.2186 20.4235 15.2174 19.3846M22.3189 10.0153L33.4783 2.15381M22.3189 10.0153V17.9846M22.3189 10.0153L33.4783 17.9846M33.4783 2.15381L44.6377 10.0153M33.4783 2.15381V10.0153M44.6377 10.0153V17.9846M44.6377 10.0153L33.4783 17.9846M44.6377 17.9846L33.4783 25.8461M44.6377 17.9846L33.4783 10.0153M33.4783 25.8461L22.3189 17.9846M33.4783 25.8461V17.9846M22.3189 17.9846L33.4783 10.0153M81.1594 6.4615H72.029V21.5384H81.1594M72.029 14H78.116M89.2754 15.0769H95.3623C96.4386 15.0769 97.4707 14.623 98.2318 13.8152C98.9928 13.0073 99.4203 11.9117 99.4203 10.7692C99.4203 9.62672 98.9928 8.53104 98.2318 7.72319C97.4707 6.91535 96.4386 6.4615 95.3623 6.4615H89.2754V21.5384M115.652 6.4615H106.522V21.5384H115.652M106.522 14H112.609M123.768 21.5384V6.4615L134.928 21.5384V6.4615M52.7537 6.4615H57.8261C59.7095 6.4615 61.5158 7.25573 62.8476 8.66947C64.1794 10.0832 64.9276 12.0006 64.9276 14C64.9276 15.9993 64.1794 17.9167 62.8476 19.3305C61.5158 20.7442 59.7095 21.5384 57.8261 21.5384H52.7537V6.4615Z" stroke="black" stroke-width="2.3" stroke-linecap="round" stroke-linejoin="round"/>
</svg>
