<svg width="32" height="32" viewBox="0 0 32 32" fill="none" xmlns="http://www.w3.org/2000/svg">
<path fill-rule="evenodd" clip-rule="evenodd" d="M14.8884 4.23093C15.3472 4.07798 15.8277 4 16.3114 4H16.5H16.6886C17.1723 4 17.6528 4.07798 18.1116 4.23093L18.2067 4.2626C18.5861 4.38908 18.947 4.56558 19.2798 4.78745L19.8107 5.14139C19.9745 5.25062 20.1309 5.37042 20.2789 5.5H12.7211C12.8691 5.37042 13.0255 5.25062 13.1893 5.14139L13.7202 4.78745C14.053 4.56558 14.4139 4.38908 14.7933 4.2626L14.8884 4.23093ZM11.4392 5.5C11.4732 5.3739 11.5407 5.25222 11.6464 5.14645L11.7964 4.99653C12.0525 4.74043 12.3332 4.51025 12.6346 4.30934L13.1655 3.9554C13.5723 3.68423 14.0134 3.4685 14.4771 3.31392L14.5721 3.28224C15.133 3.0953 15.7202 3 16.3114 3H16.5H16.6886C17.2798 3 17.867 3.0953 18.4279 3.28224L18.5229 3.31392C18.9866 3.4685 19.4277 3.68423 19.8345 3.9554L20.3654 4.30934C20.6668 4.51025 20.9475 4.74043 21.2036 4.99653L21.3536 5.14645C21.4593 5.25222 21.5268 5.3739 21.5608 5.5H22.5714C24.7806 5.5 26.5714 7.29086 26.5714 9.5V25.5C26.5714 27.7091 24.7806 29.5 22.5714 29.5H10C7.79086 29.5 6 27.7091 6 25.5V9.5C6 7.29086 7.79086 5.5 10 5.5H11.4392ZM12.2071 6.5H10C8.34315 6.5 7 7.84315 7 9.5V25.5C7 27.1569 8.34315 28.5 10 28.5H22.5714C24.2283 28.5 25.5714 27.1569 25.5714 25.5V9.5C25.5714 7.84315 24.2283 6.5 22.5714 6.5H20.7929H12.2071ZM16.25 10.5H10V9.5H16.25V10.5ZM10 18.5V19.5H22.5V18.5H10ZM10 16.5V15.5H22.5V16.5H10ZM10 12.5V13.5H22.5V12.5H10ZM10 22.5V21.5H22.5V22.5H10ZM10 24.5V25.5H22.5V24.5H10Z" fill="#003C00"/>
</svg>
