<svg width="140" height="43" viewBox="0 0 140 43" fill="none" xmlns="http://www.w3.org/2000/svg">
<g clip-path="url(#clip0_2118_1960)">
<path d="M76.6316 30.2073H70V27.9376H71.4737V21.4175C71.4737 19.8906 71.2022 18.8177 70.6593 18.1574C70.1164 17.4971 69.3795 17.2083 68.4488 17.2083C67.2078 17.2083 66.277 17.6622 65.6565 18.6113C65.036 19.5605 64.7258 20.5096 64.687 21.4588V27.8964H67.0139V30.166H60.3823V27.8964H61.856V21.4175C61.856 19.8493 61.5845 18.7764 61.0416 18.1574C60.4986 17.5384 59.7618 17.2083 58.8698 17.2083C57.6288 17.2083 56.7369 17.6622 56.0776 18.5701C55.4571 19.4779 55.1468 20.4271 55.1081 21.4175V27.9376H57.784V30.2073H49.9502V27.9376H52.277V17.4971H49.9114V15.1862H55.1081V17.8273C55.5734 16.9607 56.1551 16.2591 56.9308 15.6814C57.7064 15.1449 58.6371 14.8561 59.7618 14.8561C60.8865 14.8561 61.8172 15.1449 62.6704 15.7227C63.5236 16.3004 64.1053 17.167 64.4155 18.3637C64.8421 17.3321 65.4626 16.5067 66.3158 15.8465C67.169 15.1862 68.1773 14.8561 69.3795 14.8561C70.7369 14.8561 71.9003 15.31 72.831 16.2179C73.7618 17.1257 74.266 18.5288 74.266 20.4271V27.9376H76.6316V30.2073ZM93.1136 30.2073H87.9945V27.2361C87.5291 28.144 86.9086 28.928 86.0942 29.547C85.2798 30.2073 84.2327 30.5374 82.8754 30.5374C81.0139 30.5374 79.5014 29.8772 78.3768 28.5154C77.2521 27.1948 76.7092 25.3378 76.7092 23.0269C76.7092 20.9635 77.2133 19.0653 78.2604 17.3733C79.2687 15.6814 80.9363 14.8148 83.2244 14.8148C85.5125 14.8148 87.025 15.7227 87.9945 17.4971V9.36758H84.6593V7.05664H90.7867V27.9376H93.1136V30.2073ZM87.9557 23.2745V21.4588C87.9169 20.2207 87.4903 19.1891 86.7147 18.4463C85.9391 17.7035 85.0083 17.2908 83.9225 17.2908C82.5263 17.2908 81.4792 17.8273 80.7424 18.9002C80.0056 19.9731 79.6565 21.2937 79.6565 22.8618C79.6565 24.5538 80.0443 25.8743 80.82 26.7822C81.5956 27.69 82.5651 28.144 83.6898 28.144C84.9308 28.144 85.9391 27.6075 86.7147 26.5758C87.5291 25.5029 87.9169 24.3887 87.9557 23.2745ZM111.806 30.2073H104.321V27.9376H106.648V21.4175C106.648 19.8906 106.377 18.8177 105.795 18.1574C105.252 17.4971 104.476 17.2083 103.585 17.2083C102.382 17.2083 101.413 17.6209 100.715 18.4463C100.017 19.2716 99.6288 20.262 99.59 21.335V27.8964H101.917V30.166H94.4322V27.8964H96.759V17.4971H94.3546V15.1862H99.6288V17.7447C100.637 15.8465 102.266 14.8973 104.554 14.8973C105.95 14.8973 107.152 15.3513 108.122 16.2591C109.091 17.167 109.557 18.5701 109.557 20.4683V27.9789H111.884V30.2073H111.806Z" fill="black"/>
<path d="M16.2881 0.0825195L5.1967 38.0892H0.659302L11.7119 0.0825195H16.2881ZM20.3214 0.0825195V38.0892H16.2881V0.0825195H20.3214ZM35.9502 0.0825195L24.8975 38.0892H20.3601L31.4128 0.0825195H35.9502ZM39.9834 0.0825195V38.0892H35.9502V0.0825195H39.9834Z" fill="#8CB4FF"/>
<path d="M114.017 39.2034H140V42.8348H114.017V39.2034Z" fill="#8CB4FF"/>
</g>
<defs>
<clipPath id="clip0_2118_1960">
<rect width="140" height="43" fill="white"/>
</clipPath>
</defs>
</svg>
