<svg width="32" height="32" viewBox="0 0 32 32" fill="none" xmlns="http://www.w3.org/2000/svg">
<path fill-rule="evenodd" clip-rule="evenodd" d="M6.5 8C5.67157 8 5 8.67157 5 9.5V21.5C5 22.3284 5.67157 23 6.5 23H16H25.5C26.3284 23 27 22.3284 27 21.5V9.5C27 8.67157 26.3284 8 25.5 8H6.5ZM6 9.5C6 9.22386 6.22386 9 6.5 9H25.5C25.7761 9 26 9.22386 26 9.5V21.5C26 21.7761 25.7761 22 25.5 22H16H6.5C6.22386 22 6 21.7761 6 21.5V9.5ZM12.4 11.3C12.5657 11.0791 12.5209 10.7657 12.3 10.6C12.0791 10.4343 11.7657 10.4791 11.6 10.7L8.825 14.4C8.55833 14.7556 8.55833 15.2444 8.825 15.6L11.6 19.3C11.7657 19.5209 12.0791 19.5657 12.3 19.4C12.5209 19.2343 12.5657 18.9209 12.4 18.7L9.625 15L12.4 11.3ZM19.7 10.6C19.4791 10.7657 19.4343 11.0791 19.6 11.3L22.375 15L19.6 18.7C19.4343 18.9209 19.4791 19.2343 19.7 19.4C19.9209 19.5657 20.2343 19.5209 20.4 19.3L23.175 15.6C23.4417 15.2444 23.4417 14.7556 23.175 14.4L20.4 10.7C20.2343 10.4791 19.9209 10.4343 19.7 10.6ZM18.4472 11.2236C18.5707 10.9766 18.4706 10.6763 18.2236 10.5528C17.9766 10.4293 17.6763 10.5294 17.5528 10.7764L13.5528 18.7764C13.4293 19.0234 13.5294 19.3237 13.7764 19.4472C14.0234 19.5707 14.3237 19.4706 14.4472 19.2236L18.4472 11.2236Z" fill="white"/>
</svg>
