<svg width="50" height="49" viewBox="0 0 50 49" fill="none" xmlns="http://www.w3.org/2000/svg">
<path fill-rule="evenodd" clip-rule="evenodd" d="M0.757538 2.75754C0.757538 1.65297 1.65297 0.757538 2.75754 0.757538H47.2425C48.347 0.757538 49.2425 1.65297 49.2425 2.75754V31.7475C49.2425 32.8521 48.347 33.7475 47.2425 33.7475H26V41.7086H35.0678C36.1724 41.7086 37.0678 42.604 37.0678 43.7086V46.1357C37.0678 47.2403 36.1724 48.1357 35.0678 48.1357H14.9322C13.8276 48.1357 12.9322 47.2403 12.9322 46.1357V43.7086C12.9322 42.604 13.8276 41.7086 14.9322 41.7086H24V33.7475H2.75754C1.65297 33.7475 0.757538 32.8521 0.757538 31.7475V2.75754ZM2.75754 2.75754H2.75754V31.7475H25H47.2425V2.75754H2.75754ZM25 43.7086H14.9322V46.1357H35.0678V43.7086H25ZM16.9457 7.89146C17.2771 7.44963 17.1876 6.82283 16.7457 6.49146C16.3039 6.16009 15.6771 6.24963 15.3457 6.69146L8.93003 15.2457C8.53003 15.7791 8.53003 16.5124 8.93003 17.0457L15.3457 25.6C15.6771 26.0418 16.3039 26.1314 16.7457 25.8C17.1876 25.4686 17.2771 24.8418 16.9457 24.4L10.755 16.1457L16.9457 7.89146ZM33.2543 6.49146C32.8124 6.82283 32.7229 7.44963 33.0543 7.89146L39.245 16.1457L33.0543 24.4C32.7229 24.8418 32.8124 25.4686 33.2543 25.8C33.6961 26.1314 34.3229 26.0418 34.6543 25.6L41.07 17.0457C41.47 16.5124 41.47 15.7791 41.07 15.2457L34.6543 6.69146C34.3229 6.24963 33.6961 6.16009 33.2543 6.49146ZM30.3216 7.73867C30.5685 7.2447 30.3683 6.64402 29.8743 6.39703C29.3804 6.15004 28.7797 6.35027 28.5327 6.84425L19.6784 24.5528C19.4314 25.0468 19.6317 25.6474 20.1256 25.8944C20.6196 26.1414 21.2203 25.9412 21.4673 25.4472L30.3216 7.73867Z" fill="#003c00"/>
</svg>
