<svg width="32" height="32" viewBox="0 0 32 32" fill="none" xmlns="http://www.w3.org/2000/svg">
<path fill-rule="evenodd" clip-rule="evenodd" d="M10 6.5C10 5.67157 10.6716 5 11.5 5H20.5C21.3284 5 22 5.67157 22 6.5V8H10V6.5ZM9 8V6.5C9 5.11929 10.1193 4 11.5 4H20.5C21.8807 4 23 5.11929 23 6.5V8H26C28.2091 8 30 9.79086 30 12V24C30 26.2091 28.2091 28 26 28H6C3.79086 28 2 26.2091 2 24V12C2 9.79086 3.79086 8 6 8H9ZM6 9H26C27.6569 9 29 10.3431 29 12V14H20H18.375C18.375 12.6883 17.3117 11.625 16 11.625C14.6883 11.625 13.625 12.6883 13.625 14H3V12C3 10.3431 4.34315 9 6 9ZM13.625 15H3V24C3 25.6569 4.34315 27 6 27H26C27.6569 27 29 25.6569 29 24V15H20H18.375C18.375 16.3117 17.3117 17.375 16 17.375C14.6883 17.375 13.625 16.3117 13.625 15ZM17.625 15C17.625 15.8975 16.8975 16.625 16 16.625C15.1025 16.625 14.375 15.8975 14.375 15H17.625ZM17.625 14C17.625 13.1025 16.8975 12.375 16 12.375C15.1025 12.375 14.375 13.1025 14.375 14H17.625Z" fill="#003C00"/>
</svg>
