<svg width="32" height="32" viewBox="0 0 32 32" fill="none" xmlns="http://www.w3.org/2000/svg">
<path fill-rule="evenodd" clip-rule="evenodd" d="M16.5093 7L16.694 7.07778L26.194 11.0778L27.2885 11.5386L27 11.6601V17.5386H26V12.0811L24 12.9232V21.5386V21.8683L23.697 21.9982L16.697 24.9982L16.5 25.0826L16.303 24.9982L9.30304 21.9982L9 21.8683V21.5386V13.2165L5.822 12.0058L4.59549 11.5386L5.822 11.0714L16.322 7.07135L16.5093 7ZM16.694 15.9994L23 13.3443V21.2089L16.5 23.9946L10 21.2089V13.5975L16.322 16.0058L16.5093 16.0772L16.694 15.9994ZM7.40452 11.5386L16.4907 15L24.7115 11.5386L16.4907 8.07719L7.40452 11.5386Z" fill="#003C00"/>
</svg>
