<svg width="300" height="64" viewBox="0 0 300 64" fill="none" xmlns="http://www.w3.org/2000/svg">
<path fill-rule="evenodd" clip-rule="evenodd" d="M7.75732 10.7576C7.75732 9.653 8.65276 8.75757 9.75733 8.75757H54.2422C55.3468 8.75757 56.2422 9.653 56.2422 10.7576V39.7475C56.2422 40.8521 55.3468 41.7475 54.2422 41.7475H32.9998V49.7086H42.0676C43.1722 49.7086 44.0676 50.604 44.0676 51.7086V54.1357C44.0676 55.2403 43.1722 56.1357 42.0676 56.1357H21.9319C20.8274 56.1357 19.9319 55.2403 19.9319 54.1357V51.7086C19.9319 50.604 20.8274 49.7086 21.9319 49.7086H30.9998V41.7475H9.75732C8.65275 41.7475 7.75732 40.8521 7.75732 39.7475V10.7576ZM9.75733 10.7576H9.75732V39.7475H31.9998H54.2422V10.7576H9.75733ZM31.9998 51.7086H21.9319V54.1357L42.0676 54.1357V51.7086H31.9998ZM23.9455 15.8915C24.2769 15.4497 24.1873 14.8229 23.7455 14.4915C23.3037 14.1601 22.6769 14.2497 22.3455 14.6915L15.9298 23.2458C15.5298 23.7791 15.5298 24.5124 15.9298 25.0458L22.3455 33.6C22.6769 34.0419 23.3037 34.1314 23.7455 33.8C24.1873 33.4687 24.2769 32.8419 23.9455 32.4L17.7548 24.1458L23.9455 15.8915ZM40.2541 14.4915C39.8122 14.8229 39.7227 15.4497 40.0541 15.8915L46.2448 24.1458L40.0541 32.4C39.7227 32.8419 39.8122 33.4687 40.2541 33.8C40.6959 34.1314 41.3227 34.0419 41.6541 33.6L48.0698 25.0458C48.4698 24.5124 48.4698 23.7791 48.0698 23.2458L41.6541 14.6915C41.3227 14.2497 40.6959 14.1601 40.2541 14.4915ZM37.3213 15.7387C37.5683 15.2447 37.3681 14.6441 36.8741 14.3971C36.3802 14.1501 35.7795 14.3503 35.5325 14.8443L26.6782 32.5528C26.4312 33.0468 26.6315 33.6475 27.1254 33.8945C27.6194 34.1415 28.2201 33.9412 28.4671 33.4472L37.3213 15.7387Z" fill="white"/>
<path d="M70.616 32.264C73.016 32.68 74.216 34.04 74.216 36.344C74.216 37.912 73.688 39.08 72.632 39.848C71.576 40.616 70.12 41 68.264 41H64.04V24.488H67.616C69.52 24.488 70.984 24.84 72.008 25.544C73.032 26.248 73.544 27.28 73.544 28.64C73.544 29.616 73.272 30.416 72.728 31.04C72.2 31.648 71.496 32.056 70.616 32.264ZM66.272 26.192V31.52H68.336C69.264 31.52 69.984 31.288 70.496 30.824C71.024 30.344 71.288 29.68 71.288 28.832C71.288 27.904 71 27.232 70.424 26.816C69.864 26.4 69 26.192 67.832 26.192H66.272ZM68.288 39.248C69.456 39.248 70.352 39.024 70.976 38.576C71.6 38.112 71.912 37.352 71.912 36.296C71.912 34.216 70.784 33.176 68.528 33.176H66.272V39.248H68.288ZM85.925 34.304C85.925 34.64 85.909 35.016 85.877 35.432H78.533C78.597 36.904 78.893 37.968 79.421 38.624C79.949 39.264 80.669 39.584 81.581 39.584C82.157 39.584 82.669 39.496 83.117 39.32C83.581 39.144 84.061 38.856 84.557 38.456L85.517 39.728C84.333 40.784 82.989 41.312 81.485 41.312C79.837 41.312 78.557 40.744 77.645 39.608C76.749 38.456 76.301 36.848 76.301 34.784C76.301 32.72 76.733 31.088 77.597 29.888C78.461 28.672 79.661 28.064 81.197 28.064C82.717 28.064 83.885 28.608 84.701 29.696C85.517 30.768 85.925 32.304 85.925 34.304ZM83.837 33.656C83.837 31.016 82.965 29.696 81.221 29.696C80.421 29.696 79.789 30.032 79.325 30.704C78.861 31.36 78.597 32.432 78.533 33.92H83.837V33.656ZM98.1924 28.832C97.5044 29.104 96.4404 29.24 95.0004 29.24C96.3444 29.912 97.0164 31.016 97.0164 32.552C97.0164 33.816 96.6164 34.84 95.8164 35.624C95.0324 36.392 93.9604 36.776 92.6004 36.776C92.0884 36.776 91.6244 36.696 91.2084 36.536C90.7604 36.856 90.5364 37.264 90.5364 37.76C90.5364 38.512 91.0644 38.888 92.1204 38.888H93.7764C95.0244 38.888 96.0164 39.208 96.7524 39.848C97.4884 40.472 97.8564 41.272 97.8564 42.248C97.8564 43.432 97.4004 44.36 96.4884 45.032C95.5764 45.72 94.2404 46.064 92.4804 46.064C90.6564 46.064 89.3604 45.752 88.5924 45.128C87.8404 44.504 87.4644 43.552 87.4644 42.272H89.4084C89.4084 42.8 89.4964 43.216 89.6724 43.52C89.8644 43.84 90.1764 44.072 90.6084 44.216C91.0564 44.376 91.6884 44.456 92.5044 44.456C93.6404 44.456 94.4564 44.28 94.9524 43.928C95.4484 43.576 95.6964 43.072 95.6964 42.416C95.6964 41.808 95.4884 41.344 95.0724 41.024C94.6724 40.704 94.0964 40.544 93.3444 40.544H91.9284C90.8244 40.544 90.0004 40.336 89.4564 39.92C88.9124 39.488 88.6404 38.92 88.6404 38.216C88.6404 37.4 89.0804 36.672 89.9604 36.032C89.2884 35.648 88.7844 35.168 88.4484 34.592C88.1284 34 87.9684 33.288 87.9684 32.456C87.9684 31.144 88.3844 30.088 89.2164 29.288C90.0484 28.488 91.1444 28.088 92.5044 28.088C93.7684 28.088 94.7444 28 95.4324 27.824C96.1364 27.648 96.8564 27.376 97.5924 27.008L98.1924 28.832ZM92.5284 29.6C91.7444 29.6 91.1444 29.848 90.7284 30.344C90.3284 30.824 90.1284 31.528 90.1284 32.456C90.1284 33.352 90.3364 34.056 90.7524 34.568C91.1844 35.064 91.7764 35.312 92.5284 35.312C94.1124 35.312 94.9044 34.352 94.9044 32.432C94.9044 31.504 94.7044 30.8 94.3044 30.32C93.9044 29.84 93.3124 29.6 92.5284 29.6ZM102.362 28.376V41H100.202V28.376H102.362ZM101.282 22.424C101.698 22.424 102.034 22.56 102.29 22.832C102.562 23.104 102.698 23.44 102.698 23.84C102.698 24.24 102.57 24.576 102.314 24.848C102.058 25.104 101.714 25.232 101.282 25.232C100.866 25.232 100.522 25.104 100.25 24.848C99.9938 24.576 99.8658 24.24 99.8658 23.84C99.8658 23.44 99.9938 23.104 100.25 22.832C100.522 22.56 100.866 22.424 101.282 22.424ZM111.889 28.064C112.897 28.064 113.681 28.4 114.241 29.072C114.817 29.728 115.105 30.64 115.105 31.808V41H112.945V32.072C112.945 31.256 112.809 30.672 112.537 30.32C112.265 29.952 111.849 29.768 111.289 29.768C110.233 29.768 109.273 30.52 108.409 32.024V41H106.249V28.376H108.121L108.289 30.248C109.265 28.792 110.465 28.064 111.889 28.064ZM124.545 28.064C125.553 28.064 126.337 28.4 126.897 29.072C127.473 29.728 127.761 30.64 127.761 31.808V41H125.601V32.072C125.601 31.256 125.465 30.672 125.193 30.32C124.921 29.952 124.505 29.768 123.945 29.768C122.889 29.768 121.929 30.52 121.065 32.024V41H118.905V28.376H120.777L120.945 30.248C121.921 28.792 123.121 28.064 124.545 28.064ZM140.417 34.304C140.417 34.64 140.401 35.016 140.369 35.432H133.025C133.089 36.904 133.385 37.968 133.913 38.624C134.441 39.264 135.161 39.584 136.073 39.584C136.649 39.584 137.161 39.496 137.609 39.32C138.073 39.144 138.553 38.856 139.049 38.456L140.009 39.728C138.825 40.784 137.481 41.312 135.977 41.312C134.329 41.312 133.049 40.744 132.137 39.608C131.241 38.456 130.793 36.848 130.793 34.784C130.793 32.72 131.225 31.088 132.089 29.888C132.953 28.672 134.153 28.064 135.689 28.064C137.209 28.064 138.377 28.608 139.193 29.696C140.009 30.768 140.417 32.304 140.417 34.304ZM138.329 33.656C138.329 31.016 137.457 29.696 135.713 29.696C134.913 29.696 134.281 30.032 133.817 30.704C133.353 31.36 133.089 32.432 133.025 33.92H138.329V33.656ZM149.061 28.064C150.069 28.064 150.853 28.4 151.413 29.072C151.989 29.728 152.277 30.64 152.277 31.808V41H150.117V32.072C150.117 31.256 149.981 30.672 149.709 30.32C149.437 29.952 149.021 29.768 148.461 29.768C147.405 29.768 146.445 30.52 145.581 32.024V41H143.421V28.376H145.293L145.461 30.248C146.437 28.792 147.637 28.064 149.061 28.064ZM173.389 28.064C174.301 28.064 175.029 28.408 175.573 29.096C176.117 29.768 176.389 30.672 176.389 31.808V41H174.253V32.048C174.253 30.512 173.757 29.744 172.765 29.744C171.805 29.744 170.925 30.48 170.125 31.952V41H167.989V32.048C167.989 30.512 167.493 29.744 166.501 29.744C165.525 29.744 164.645 30.48 163.861 31.952V41H161.725V28.376H163.597L163.765 30.224C164.693 28.784 165.813 28.064 167.125 28.064C167.813 28.064 168.397 28.264 168.877 28.664C169.357 29.064 169.701 29.632 169.909 30.368C170.885 28.832 172.045 28.064 173.389 28.064ZM189.027 34.304C189.027 34.64 189.011 35.016 188.979 35.432H181.635C181.699 36.904 181.995 37.968 182.523 38.624C183.051 39.264 183.771 39.584 184.683 39.584C185.259 39.584 185.771 39.496 186.219 39.32C186.683 39.144 187.163 38.856 187.659 38.456L188.619 39.728C187.435 40.784 186.091 41.312 184.587 41.312C182.939 41.312 181.659 40.744 180.747 39.608C179.851 38.456 179.403 36.848 179.403 34.784C179.403 32.72 179.835 31.088 180.699 29.888C181.563 28.672 182.763 28.064 184.299 28.064C185.819 28.064 186.987 28.608 187.803 29.696C188.619 30.768 189.027 32.304 189.027 34.304ZM186.939 33.656C186.939 31.016 186.067 29.696 184.323 29.696C183.523 29.696 182.891 30.032 182.427 30.704C181.963 31.36 181.699 32.432 181.635 33.92H186.939V33.656ZM198.006 40.448C197.206 41.024 196.318 41.312 195.342 41.312C194.318 41.312 193.526 41.016 192.966 40.424C192.422 39.832 192.15 39 192.15 37.928V30.008H190.35V28.376H192.15V25.472L194.31 25.208V28.376H197.094L196.854 30.008H194.31V37.904C194.31 38.992 194.766 39.536 195.678 39.536C195.95 39.536 196.198 39.496 196.422 39.416C196.662 39.336 196.926 39.216 197.214 39.056L198.006 40.448ZM209.922 28.064C210.594 28.064 211.21 28.176 211.77 28.4C212.33 28.624 212.866 28.968 213.378 29.432L212.418 30.728C212.034 30.424 211.65 30.2 211.266 30.056C210.882 29.896 210.466 29.816 210.018 29.816C209.074 29.816 208.338 30.216 207.81 31.016C207.298 31.816 207.042 33.064 207.042 34.76C207.042 37.928 208.034 39.512 210.018 39.512C210.466 39.512 210.874 39.44 211.242 39.296C211.61 39.136 212.002 38.904 212.418 38.6L213.426 39.92C212.402 40.848 211.242 41.312 209.946 41.312C208.33 41.312 207.058 40.752 206.13 39.632C205.218 38.512 204.762 36.896 204.762 34.784C204.762 33.408 204.97 32.216 205.386 31.208C205.818 30.2 206.418 29.424 207.186 28.88C207.97 28.336 208.882 28.064 209.922 28.064ZM219.742 28.064C221.358 28.064 222.614 28.632 223.51 29.768C224.406 30.904 224.854 32.536 224.854 34.664C224.854 36.712 224.398 38.336 223.486 39.536C222.574 40.72 221.318 41.312 219.718 41.312C218.102 41.312 216.838 40.728 215.926 39.56C215.03 38.392 214.582 36.768 214.582 34.688C214.582 32.592 215.038 30.968 215.95 29.816C216.862 28.648 218.126 28.064 219.742 28.064ZM219.742 29.792C218.798 29.792 218.078 30.192 217.582 30.992C217.086 31.776 216.838 33.008 216.838 34.688C216.838 37.968 217.798 39.608 219.718 39.608C221.638 39.608 222.598 37.96 222.598 34.664C222.598 32.984 222.358 31.752 221.878 30.968C221.398 30.184 220.686 29.792 219.742 29.792ZM236.959 23.264V41H235.039L234.895 39.344C234.079 40.656 232.983 41.312 231.607 41.312C230.231 41.312 229.159 40.728 228.391 39.56C227.639 38.392 227.263 36.784 227.263 34.736C227.263 33.408 227.447 32.24 227.815 31.232C228.199 30.224 228.735 29.448 229.423 28.904C230.111 28.344 230.903 28.064 231.799 28.064C232.999 28.064 233.999 28.568 234.799 29.576V23.024L236.959 23.264ZM232.111 39.608C232.687 39.608 233.183 39.448 233.599 39.128C234.031 38.808 234.431 38.336 234.799 37.712V31.376C234.079 30.304 233.239 29.768 232.279 29.768C231.431 29.768 230.759 30.176 230.263 30.992C229.767 31.808 229.527 33.04 229.543 34.688C229.543 36.368 229.767 37.608 230.215 38.408C230.663 39.208 231.295 39.608 232.111 39.608ZM249.706 34.304C249.706 34.64 249.69 35.016 249.658 35.432H242.314C242.378 36.904 242.674 37.968 243.202 38.624C243.73 39.264 244.45 39.584 245.362 39.584C245.938 39.584 246.45 39.496 246.898 39.32C247.362 39.144 247.842 38.856 248.338 38.456L249.298 39.728C248.114 40.784 246.77 41.312 245.266 41.312C243.618 41.312 242.338 40.744 241.426 39.608C240.53 38.456 240.082 36.848 240.082 34.784C240.082 32.72 240.514 31.088 241.378 29.888C242.242 28.672 243.442 28.064 244.978 28.064C246.498 28.064 247.666 28.608 248.482 29.696C249.298 30.768 249.706 32.304 249.706 34.304ZM247.618 33.656C247.618 31.016 246.746 29.696 245.002 29.696C244.202 29.696 243.57 30.032 243.106 30.704C242.642 31.36 242.378 32.432 242.314 33.92H247.618V33.656ZM257.894 28.088C258.31 28.088 258.67 28.136 258.974 28.232L258.614 30.32C258.31 30.224 257.982 30.176 257.63 30.176C256.926 30.176 256.35 30.456 255.902 31.016C255.47 31.576 255.126 32.432 254.87 33.584V41H252.71V28.376H254.582L254.75 30.872C255.374 29.016 256.422 28.088 257.894 28.088ZM269.253 34.304C269.253 34.64 269.237 35.016 269.205 35.432H261.861C261.925 36.904 262.221 37.968 262.749 38.624C263.277 39.264 263.997 39.584 264.909 39.584C265.485 39.584 265.997 39.496 266.445 39.32C266.909 39.144 267.389 38.856 267.885 38.456L268.845 39.728C267.661 40.784 266.317 41.312 264.813 41.312C263.165 41.312 261.885 40.744 260.973 39.608C260.077 38.456 259.629 36.848 259.629 34.784C259.629 32.72 260.061 31.088 260.925 29.888C261.789 28.672 262.989 28.064 264.525 28.064C266.045 28.064 267.213 28.608 268.029 29.696C268.845 30.768 269.253 32.304 269.253 34.304ZM267.165 33.656C267.165 31.016 266.293 29.696 264.549 29.696C263.749 29.696 263.117 30.032 262.653 30.704C262.189 31.36 261.925 32.432 261.861 33.92H267.165V33.656ZM277.897 28.064C278.905 28.064 279.689 28.4 280.249 29.072C280.825 29.728 281.113 30.64 281.113 31.808V41H278.953V32.072C278.953 31.256 278.817 30.672 278.545 30.32C278.273 29.952 277.857 29.768 277.297 29.768C276.241 29.768 275.281 30.52 274.417 32.024V41H272.257V28.376H274.129L274.297 30.248C275.273 28.792 276.473 28.064 277.897 28.064ZM287.474 24.176C288.354 24.176 289.106 24.352 289.73 24.704C290.37 25.04 290.85 25.488 291.17 26.048C291.49 26.608 291.65 27.216 291.65 27.872C291.65 28.464 291.554 28.976 291.362 29.408C291.186 29.824 290.954 30.168 290.666 30.44C290.394 30.712 290.034 31.024 289.586 31.376C288.962 31.872 288.498 32.328 288.194 32.744C287.89 33.16 287.738 33.712 287.738 34.4V35.48H285.698V34.28C285.698 33.608 285.794 33.04 285.986 32.576C286.194 32.096 286.434 31.712 286.706 31.424C286.994 31.136 287.37 30.808 287.834 30.44C288.378 30.024 288.778 29.648 289.034 29.312C289.306 28.96 289.442 28.504 289.442 27.944C289.442 27.32 289.25 26.832 288.866 26.48C288.482 26.128 287.962 25.952 287.306 25.952C286.746 25.952 286.226 26.088 285.746 26.36C285.266 26.616 284.786 27.024 284.306 27.584L282.962 26.528C283.57 25.744 284.242 25.16 284.978 24.776C285.714 24.376 286.546 24.176 287.474 24.176ZM286.754 38.264C287.202 38.264 287.562 38.416 287.834 38.72C288.122 39.008 288.266 39.36 288.266 39.776C288.266 40.192 288.122 40.552 287.834 40.856C287.562 41.16 287.202 41.312 286.754 41.312C286.322 41.312 285.962 41.16 285.674 40.856C285.402 40.552 285.266 40.192 285.266 39.776C285.266 39.36 285.402 39.008 285.674 38.72C285.962 38.416 286.322 38.264 286.754 38.264Z" fill="white"/>
</svg>
